HIERARCHY
ROOT mixamorig:Hips
{
	OFFSET 0.000000 85.230415 0.000000
	CHANNELS 6 Xposition Yposition Zposition Zrotation Yrotation Xrotation 
	JOINT mixamorig:Spine
	{
		OFFSET -0.000014 7.868595 1.166200
		CHANNELS 3 Zrotation Yrotation Xrotation
		JOINT mixamorig:Spine1
		{
			OFFSET 0.000000 8.307600 0.241180
			CHANNELS 3 Zrotation Yrotation Xrotation
			JOINT mixamorig:Spine2
			{
				OFFSET 0.000000 7.469998 -0.455969
				CHANNELS 3 Zrotation Yrotation Xrotation
				JOINT mixamorig:Neck
				{
					OFFSET 0.000000 21.623920 -3.130763
					CHANNELS 3 Zrotation Yrotation Xrotation
					JOINT mixamorig:Head
					{
						OFFSET 0.000000 8.979096 1.007916
						CHANNELS 3 Zrotation Yrotation Xrotation
						JOINT mixamorig:HeadTop_End
						{
							OFFSET 0.000000 36.978806 0.701265
							CHANNELS 3 Zrotation Yrotation Xrotation
							End Site
							{
								OFFSET 0.000000 0.000000 0.000000
							}
						}
						JOINT mixamorig:HairB
						{
							OFFSET -6.414200 28.771164 21.708258
							CHANNELS 3 Zrotation Yrotation Xrotation
							End Site
							{
								OFFSET 0.000000 0.000000 0.000000
							}
						}
						JOINT mixamorig:HairA
						{
							OFFSET -11.484100 27.496475 17.498951
							CHANNELS 3 Zrotation Yrotation Xrotation
							End Site
							{
								OFFSET 0.000000 0.000000 0.000000
							}
						}
						JOINT mixamorig:Bow_Left
						{
							OFFSET -6.807600 33.586777 20.752766
							CHANNELS 3 Zrotation Yrotation Xrotation
							End Site
							{
								OFFSET 0.000000 0.000000 0.000000
							}
						}
						JOINT mixamorig:Bow_Right
						{
							OFFSET -11.133100 30.313980 19.500957
							CHANNELS 3 Zrotation Yrotation Xrotation
							End Site
							{
								OFFSET 0.000000 0.000000 0.000000
							}
						}
						JOINT mixamorig:HairC
						{
							OFFSET 2.525900 31.959274 20.608562
							CHANNELS 3 Zrotation Yrotation Xrotation
							JOINT mixamorig:HairC1
							{
								OFFSET 1.733735 -3.232010 3.632423
								CHANNELS 3 Zrotation Yrotation Xrotation
								End Site
								{
									OFFSET 0.000000 0.000000 0.000000
								}
							}
						}
						JOINT mixamorig:Ponytail
						{
							OFFSET -0.181100 31.348724 -13.427048
							CHANNELS 3 Zrotation Yrotation Xrotation
							JOINT mixamorig:Ponytail1
							{
								OFFSET -0.746532 2.567368 -7.327436
								CHANNELS 3 Zrotation Yrotation Xrotation
								JOINT mixamorig:Ponytail2
								{
									OFFSET -0.357839 -10.803711 -7.221615
									CHANNELS 3 Zrotation Yrotation Xrotation
									End Site
									{
										OFFSET 0.000000 0.000000 0.000000
									}
								}
							}
						}
					}
				}
				JOINT mixamorig:LeftShoulder
				{
					OFFSET 4.215800 16.566912 -4.092373
					CHANNELS 3 Zrotation Yrotation Xrotation
					JOINT mixamorig:LeftArm
					{
						OFFSET 8.521194 -0.267406 -1.717659
						CHANNELS 3 Zrotation Yrotation Xrotation
						JOINT mixamorig:LeftForeArm
						{
							OFFSET 21.262897 0.000002 -0.000001
							CHANNELS 3 Zrotation Yrotation Xrotation
							JOINT mixamorig:LeftHand
							{
								OFFSET 21.154701 -0.000003 -0.000001
								CHANNELS 3 Zrotation Yrotation Xrotation
								JOINT mixamorig:LeftHandThumb1
								{
									OFFSET 4.109039 -1.962593 2.610258
									CHANNELS 3 Zrotation Yrotation Xrotation
									JOINT mixamorig:LeftHandThumb2
									{
										OFFSET 3.101486 -1.790642 1.790644
										CHANNELS 3 Zrotation Yrotation Xrotation
										JOINT mixamorig:LeftHandThumb3
										{
											OFFSET 3.038742 -1.754417 1.754420
											CHANNELS 3 Zrotation Yrotation Xrotation
											JOINT mixamorig:LeftHandThumb4
											{
												OFFSET 2.539978 -1.466461 1.466458
												CHANNELS 3 Zrotation Yrotation Xrotation
												End Site
												{
													OFFSET 0.000000 0.000000 0.000000
												}
											}
										}
									}
								}
								JOINT mixamorig:LeftHandIndex1
								{
									OFFSET 11.845871 -0.683540 3.729384
									CHANNELS 3 Zrotation Yrotation Xrotation
									JOINT mixamorig:LeftHandIndex2
									{
										OFFSET 3.283096 0.000000 -0.000000
										CHANNELS 3 Zrotation Yrotation Xrotation
										JOINT mixamorig:LeftHandIndex3
										{
											OFFSET 3.323807 0.000000 -0.000000
											CHANNELS 3 Zrotation Yrotation Xrotation
											JOINT mixamorig:LeftHandIndex4
											{
												OFFSET 3.020599 0.000000 -0.000000
												CHANNELS 3 Zrotation Yrotation Xrotation
												End Site
												{
													OFFSET 0.000000 0.000000 0.000000
												}
											}
										}
									}
								}
								JOINT mixamorig:LeftHandMiddle1
								{
									OFFSET 12.082413 0.000000 -0.000000
									CHANNELS 3 Zrotation Yrotation Xrotation
									JOINT mixamorig:LeftHandMiddle2
									{
										OFFSET 3.410500 0.000000 0.000000
										CHANNELS 3 Zrotation Yrotation Xrotation
										JOINT mixamorig:LeftHandMiddle3
										{
											OFFSET 3.312202 0.000000 0.000000
											CHANNELS 3 Zrotation Yrotation Xrotation
											JOINT mixamorig:LeftHandMiddle4
											{
												OFFSET 3.438499 0.000000 0.000000
												CHANNELS 3 Zrotation Yrotation Xrotation
												End Site
												{
													OFFSET 0.000000 0.000000 0.000000
												}
											}
										}
									}
								}
								JOINT mixamorig:LeftHandRing1
								{
									OFFSET 12.470573 0.087585 -2.973213
									CHANNELS 3 Zrotation Yrotation Xrotation
									JOINT mixamorig:LeftHandRing2
									{
										OFFSET 3.053307 0.000000 0.000000
										CHANNELS 3 Zrotation Yrotation Xrotation
										JOINT mixamorig:LeftHandRing3
										{
											OFFSET 3.295898 0.000000 0.000000
											CHANNELS 3 Zrotation Yrotation Xrotation
											JOINT mixamorig:LeftHandRing4
											{
												OFFSET 3.727997 0.000000 0.000000
												CHANNELS 3 Zrotation Yrotation Xrotation
												End Site
												{
													OFFSET 0.000000 0.000000 0.000000
												}
											}
										}
									}
								}
								JOINT mixamorig:LeftHandPinky1
								{
									OFFSET 11.691048 -0.779549 -5.760270
									CHANNELS 3 Zrotation Yrotation Xrotation
									JOINT mixamorig:LeftHandPinky2
									{
										OFFSET 2.861702 0.000000 0.000000
										CHANNELS 3 Zrotation Yrotation Xrotation
										JOINT mixamorig:LeftHandPinky3
										{
											OFFSET 2.863403 0.000000 0.000000
											CHANNELS 3 Zrotation Yrotation Xrotation
											JOINT mixamorig:LeftHandPinky4
											{
												OFFSET 2.545403 0.000000 0.000000
												CHANNELS 3 Zrotation Yrotation Xrotation
												End Site
												{
													OFFSET 0.000000 0.000000 0.000000
												}
											}
										}
									}
								}
							}
							JOINT mixamorig:LeftWristTwist
							{
								OFFSET 10.565701 0.000000 -0.000000
								CHANNELS 3 Zrotation Yrotation Xrotation
								End Site
								{
									OFFSET 0.000000 0.000000 0.000000
								}
							}
						}
						JOINT mixamorig:LeftUpArmTwist
						{
							OFFSET 10.646198 0.000000 -0.000000
							CHANNELS 3 Zrotation Yrotation Xrotation
							End Site
							{
								OFFSET 0.000000 0.000000 0.000000
							}
						}
					}
				}
				JOINT mixamorig:Right_Breast
				{
					OFFSET -2.562200 12.208893 5.100423
					CHANNELS 3 Zrotation Yrotation Xrotation
					End Site
					{
						OFFSET 0.000000 0.000000 0.000000
					}
				}
				JOINT mixamorig:Left_Breast
				{
					OFFSET 2.562200 12.208893 5.100423
					CHANNELS 3 Zrotation Yrotation Xrotation
					End Site
					{
						OFFSET 0.000000 0.000000 0.000000
					}
				}
				JOINT mixamorig:RightShoulder
				{
					OFFSET -4.215800 16.567416 -4.092373
					CHANNELS 3 Zrotation Yrotation Xrotation
					JOINT mixamorig:RightArm
					{
						OFFSET -8.521288 -0.267902 -1.717664
						CHANNELS 3 Zrotation Yrotation Xrotation
						JOINT mixamorig:RightForeArm
						{
							OFFSET -21.262793 -0.000002 0.000001
							CHANNELS 3 Zrotation Yrotation Xrotation
							JOINT mixamorig:RightHand
							{
								OFFSET -21.154800 0.000000 -0.000001
								CHANNELS 3 Zrotation Yrotation Xrotation
								JOINT mixamorig:RightHandThumb1
								{
									OFFSET -4.108955 -1.962654 2.610195
									CHANNELS 3 Zrotation Yrotation Xrotation
									JOINT mixamorig:RightHandThumb2
									{
										OFFSET -3.101406 -1.790596 1.790599
										CHANNELS 3 Zrotation Yrotation Xrotation
										JOINT mixamorig:RightHandThumb3
										{
											OFFSET -3.038822 -1.754463 1.754464
											CHANNELS 3 Zrotation Yrotation Xrotation
											JOINT mixamorig:RightHandThumb4
											{
												OFFSET -2.539749 -1.466324 1.466325
												CHANNELS 3 Zrotation Yrotation Xrotation
												End Site
												{
													OFFSET 0.000000 0.000000 0.000000
												}
											}
										}
									}
								}
								JOINT mixamorig:RightHandIndex1
								{
									OFFSET -11.845840 -0.684052 3.729363
									CHANNELS 3 Zrotation Yrotation Xrotation
									JOINT mixamorig:RightHandIndex2
									{
										OFFSET -3.283096 0.000000 -0.000000
										CHANNELS 3 Zrotation Yrotation Xrotation
										JOINT mixamorig:RightHandIndex3
										{
											OFFSET -3.323807 0.000000 -0.000000
											CHANNELS 3 Zrotation Yrotation Xrotation
											JOINT mixamorig:RightHandIndex4
											{
												OFFSET -3.020599 0.000000 0.000000
												CHANNELS 3 Zrotation Yrotation Xrotation
												End Site
												{
													OFFSET 0.000000 0.000000 0.000000
												}
											}
										}
									}
								}
								JOINT mixamorig:RightHandMiddle1
								{
									OFFSET -12.082314 0.000000 0.000000
									CHANNELS 3 Zrotation Yrotation Xrotation
									JOINT mixamorig:RightHandMiddle2
									{
										OFFSET -3.410606 0.000000 0.000000
										CHANNELS 3 Zrotation Yrotation Xrotation
										JOINT mixamorig:RightHandMiddle3
										{
											OFFSET -3.312195 0.000000 0.000000
											CHANNELS 3 Zrotation Yrotation Xrotation
											JOINT mixamorig:RightHandMiddle4
											{
												OFFSET -3.438499 0.000000 0.000000
												CHANNELS 3 Zrotation Yrotation Xrotation
												End Site
												{
													OFFSET 0.000000 0.000000 0.000000
												}
											}
										}
									}
								}
								JOINT mixamorig:RightHandRing1
								{
									OFFSET -12.470573 0.087166 -2.973210
									CHANNELS 3 Zrotation Yrotation Xrotation
									JOINT mixamorig:RightHandRing2
									{
										OFFSET -3.053299 0.000000 0.000000
										CHANNELS 3 Zrotation Yrotation Xrotation
										JOINT mixamorig:RightHandRing3
										{
											OFFSET -3.295898 0.000000 0.000000
											CHANNELS 3 Zrotation Yrotation Xrotation
											JOINT mixamorig:RightHandRing4
											{
												OFFSET -3.727997 0.000000 0.000000
												CHANNELS 3 Zrotation Yrotation Xrotation
												End Site
												{
													OFFSET 0.000000 0.000000 0.000000
												}
											}
										}
									}
								}
								JOINT mixamorig:RightHandPinky1
								{
									OFFSET -11.691017 -0.779953 -5.760294
									CHANNELS 3 Zrotation Yrotation Xrotation
									JOINT mixamorig:RightHandPinky2
									{
										OFFSET -2.861603 0.000000 0.000000
										CHANNELS 3 Zrotation Yrotation Xrotation
										JOINT mixamorig:RightHandPinky3
										{
											OFFSET -2.863403 0.000000 0.000000
											CHANNELS 3 Zrotation Yrotation Xrotation
											JOINT mixamorig:RightHandPinky4
											{
												OFFSET -2.545303 0.000000 0.000000
												CHANNELS 3 Zrotation Yrotation Xrotation
												End Site
												{
													OFFSET 0.000000 0.000000 0.000000
												}
											}
										}
									}
								}
							}
							JOINT mixamorig:RightWristTwist
							{
								OFFSET -10.565701 0.000000 0.000000
								CHANNELS 3 Zrotation Yrotation Xrotation
								End Site
								{
									OFFSET 0.000000 0.000000 0.000000
								}
							}
						}
						JOINT mixamorig:RightUpArmTwist
						{
							OFFSET -10.646093 0.000000 0.000001
							CHANNELS 3 Zrotation Yrotation Xrotation
							End Site
							{
								OFFSET 0.000000 0.000000 0.000000
							}
						}
					}
				}
			}
		}
		JOINT mixamorig:Belly
		{
			OFFSET 0.000000 -0.538567 3.357786
			CHANNELS 3 Zrotation Yrotation Xrotation
			End Site
			{
				OFFSET 0.000000 0.000000 0.000000
			}
		}
	}
	JOINT mixamorig:LeftUpLeg
	{
		OFFSET 8.267015 -7.995487 -0.379100
		CHANNELS 3 Zrotation Yrotation Xrotation
		JOINT mixamorig:LeftLeg
		{
			OFFSET -0.000034 -32.369440 0.062314
			CHANNELS 3 Zrotation Yrotation Xrotation
			JOINT mixamorig:LeftFoot
			{
				OFFSET 0.000024 -35.030462 -2.208349
				CHANNELS 3 Zrotation Yrotation Xrotation
				JOINT mixamorig:LeftToeBase
				{
					OFFSET 1.232905 -9.835773 10.854839
					CHANNELS 3 Zrotation Yrotation Xrotation
					JOINT mixamorig:LeftToe_End
					{
						OFFSET 0.210410 0.001970 7.008142
						CHANNELS 3 Zrotation Yrotation Xrotation
						End Site
						{
							OFFSET 0.000000 0.000000 0.000000
						}
					}
				}
			}
		}
	}
	JOINT mixamorig:RightUpLeg
	{
		OFFSET -8.266986 -7.995517 -0.379100
		CHANNELS 3 Zrotation Yrotation Xrotation
		JOINT mixamorig:RightLeg
		{
			OFFSET 0.000002 -32.369437 0.062314
			CHANNELS 3 Zrotation Yrotation Xrotation
			JOINT mixamorig:RightFoot
			{
				OFFSET 0.000001 -35.030467 -2.208349
				CHANNELS 3 Zrotation Yrotation Xrotation
				JOINT mixamorig:RightToeBase
				{
					OFFSET -1.232895 -9.835700 10.854908
					CHANNELS 3 Zrotation Yrotation Xrotation
					JOINT mixamorig:RightToe_End
					{
						OFFSET -0.214257 0.001952 7.007725
						CHANNELS 3 Zrotation Yrotation Xrotation
						End Site
						{
							OFFSET 0.000000 0.000000 0.000000
						}
					}
				}
			}
		}
	}
	JOINT mixamorig:SkirtA
	{
		OFFSET 11.243096 1.931320 -10.868500
		CHANNELS 3 Zrotation Yrotation Xrotation
		JOINT mixamorig:SkirtA1
		{
			OFFSET 2.094878 -7.760521 -3.754759
			CHANNELS 3 Zrotation Yrotation Xrotation
			End Site
			{
				OFFSET 0.000000 0.000000 0.000000
			}
		}
	}
	JOINT mixamorig:SkirtB
	{
		OFFSET -0.000008 4.335800 -15.692000
		CHANNELS 3 Zrotation Yrotation Xrotation
		JOINT mixamorig:SkirtB1
		{
			OFFSET 0.000000 -9.729668 -3.399943
			CHANNELS 3 Zrotation Yrotation Xrotation
			End Site
			{
				OFFSET 0.000000 0.000000 0.000000
			}
		}
	}
	JOINT mixamorig:SkirtC
	{
		OFFSET -11.243104 1.931381 -10.868500
		CHANNELS 3 Zrotation Yrotation Xrotation
		JOINT mixamorig:SkirtC1
		{
			OFFSET -1.996108 -7.801628 -3.723248
			CHANNELS 3 Zrotation Yrotation Xrotation
			End Site
			{
				OFFSET 0.000000 0.000000 0.000000
			}
		}
	}
}
MOTION
Frames: 4
Frame Time: 0.016667
0.684635 65.277618 1.831806 -7.217591 -2.876278 16.992650 -5.368432 14.763376 8.999385 -0.052198 4.520474 2.803327 0.552779 5.744967 3.556167 4.713487 -0.498414 -0.987515 12.261866 -7.727859 -8.690798 0.000000 0.000000 0.000001 0.000000 0.000000 -0.000002 -0.000002 -0.000001 -0.000002 0.000005 -0.000005 -0.000002 -0.000006 0.000001 0.000002 -0.000002 -0.000001 0.000000 -0.000001 -0.000003 0.000002 -0.000000 -0.000001 0.000001 0.000000 0.000001 0.000006 0.000001 0.000001 0.000008 -14.890198 0.378697 1.575556 -47.206273 16.884959 -28.479409 0.095753 -10.348934 -0.015138 16.489539 -23.456258 8.559913 3.867443 -6.350665 -5.862573 5.424715 27.126332 9.673511 10.280381 -12.293852 -12.083081 -0.000004 0.000002 0.000001 -12.462138 -6.324640 -0.505532 -16.342783 1.651679 -0.237172 -16.786218 1.695196 -0.250144 0.000001 0.000002 0.000000 -18.633573 -1.048918 -0.980509 -20.947910 2.098228 -0.387943 -22.997833 2.292754 -0.466473 0.000000 0.000000 -0.000001 -26.157516 3.285130 -1.580787 -23.874317 2.375010 -0.502163 -25.860493 2.559335 -0.587692 0.000000 0.000000 0.000004 -33.184620 3.771941 -2.190683 -29.888664 2.923321 -0.780404 -29.880859 2.922615 -0.780032 -0.000000 -0.000001 0.000001 -0.000000 -0.000001 0.000001 0.000001 0.000002 0.000002 0.000000 0.000000 0.000002 0.000000 0.000000 0.000002 -5.359623 12.442039 1.506333 -50.701967 58.596356 -60.148135 49.644579 81.007476 47.340723 -5.166829 22.619198 14.066915 -3.354384 27.011567 -15.159027 -17.227306 -43.205845 19.025897 -14.469877 1.254602 -7.605355 0.000000 0.000001 0.000001 13.849943 -4.785802 -0.633682 15.508042 -1.247749 -0.169903 15.503211 -1.247378 -0.169804 0.000001 -0.000001 -0.000000 32.839540 -5.909642 -1.939600 34.414022 -2.636042 -0.816489 36.402832 -2.767786 -0.910234 0.000000 0.000000 -0.000001 43.850757 -6.344237 -2.842325 42.368357 -3.142221 -1.218046 44.358483 -3.259700 -1.329181 -0.000000 0.000001 -0.000002 54.131647 -6.587979 -3.745779 51.592056 -3.652494 -1.765823 51.582647 -3.652021 -1.765231 0.000001 -0.000001 -0.000000 0.000000 0.000000 -0.000001 -0.000001 0.000000 0.000001 0.000000 0.000001 0.000000 0.867971 1.203630 -81.065569 8.143862 4.954315 51.674385 12.056875 23.277818 12.640948 0.000003 -0.000035 -4.486117 0.000000 0.000000 0.000000 6.837455 -14.558382 -1.553064 -3.912316 -16.803002 52.457176 18.254557 -4.231438 -31.380080 -0.000004 -0.000001 -42.282327 -0.000001 0.000000 0.000000 -0.000001 0.000001 -0.000006 0.000002 -0.000001 -0.000002 0.000000 0.000000 0.000000 0.000000 0.000000 -0.000002 0.000002 -0.000001 -0.000000 0.000001 -0.000001 -0.000000 
-0.225308 64.442368 1.966090 -5.350908 -1.937942 17.736125 -5.658937 13.947879 8.560592 -0.952667 4.682961 2.948669 -0.432985 5.725603 3.560248 4.511541 -0.491499 -0.856621 13.158397 -8.520382 -8.517766 0.000000 0.000000 0.000000 0.000000 0.000000 0.000000 0.000000 -0.000003 -0.000003 0.000000 0.000000 -0.000003 -0.000005 0.000002 0.000002 -0.000002 -0.000001 -0.000002 -0.000000 -0.000002 0.000003 -0.000001 -0.000002 -0.000002 -0.000000 0.000001 -0.000001 0.000001 0.000001 0.000003 -14.838530 0.652046 1.498546 -46.682721 16.576157 -28.617197 0.098363 -9.249457 -0.011289 17.008244 -19.321582 6.729869 3.049758 -5.780862 -6.545859 5.245511 26.237090 9.462423 10.425894 -11.624350 -11.885546 0.000001 -0.000003 -0.000004 -11.807176 -5.663042 -0.470572 -15.669943 1.585459 -0.218186 -15.374013 1.556257 -0.210050 -0.000000 -0.000002 0.000002 -17.835072 -0.473133 -0.927934 -20.155277 2.022287 -0.359458 -21.413338 2.142639 -0.405153 -0.000001 -0.000001 0.000000 -25.171868 3.874861 -1.501120 -22.825712 2.276522 -0.459609 -23.891331 2.376613 -0.502873 -0.000000 0.000002 -0.000001 -32.079807 4.668177 -2.699418 -28.278882 2.779509 -0.700331 -28.031337 2.757217 -0.688369 -0.000003 0.000001 -0.000000 0.000000 0.000000 0.000002 -0.000000 0.000004 -0.000001 -0.000001 0.000001 -0.000003 -0.000001 0.000001 -0.000003 -6.787602 13.042585 1.229420 -49.224732 57.724823 -61.012658 25.859942 76.507493 23.326983 -4.725553 24.584621 13.647169 -3.395590 25.595613 -14.575197 -15.792119 -41.186467 17.662121 -14.435826 0.676636 -7.331492 0.000002 0.000004 0.000001 13.013044 -4.621408 -0.585467 14.375385 -1.158645 -0.146121 14.370887 -1.158290 -0.146033 -0.000001 0.000003 0.000002 30.609373 -5.695763 -1.767998 31.898104 -2.464813 -0.704507 33.741140 -2.590733 -0.785779 0.000000 0.000000 0.000001 40.811447 -6.136536 -2.585137 39.269329 -2.951725 -1.053273 41.113416 -3.066148 -1.150094 -0.000000 0.000002 -0.000001 50.337180 -6.411733 -3.407442 47.816170 -3.454361 -1.531720 47.807410 -3.453879 -1.531189 -0.000001 -0.000001 0.000003 0.000000 0.000002 0.000001 0.000000 0.000002 0.000001 -0.000001 -0.000000 -0.000004 0.234496 0.590021 -83.184717 8.300056 4.645492 53.645521 10.964095 23.494158 11.969355 -0.000003 -0.000002 -4.486108 0.000000 0.000002 0.000000 6.552710 -14.536950 -3.206324 -4.693701 -16.433173 55.239790 19.918846 -3.865711 -30.598147 -0.000021 0.000012 -44.426388 0.000000 0.000001 0.000000 0.000000 0.000000 0.000001 0.000000 0.000000 -0.000004 0.000000 0.000000 0.000002 0.000000 0.000000 -0.000003 0.000001 -0.000001 0.000002 -0.000001 -0.000001 -0.000002 
-1.317372 63.780930 2.524974 -3.483055 -0.725004 18.837336 -5.983952 13.036132 8.051050 -1.904410 4.773859 3.036382 -1.230465 6.009313 3.794466 4.087395 -0.357694 -0.582583 14.306222 -9.632699 -8.171983 0.000000 0.000000 0.000001 -0.000001 0.000000 0.000001 -0.000002 -0.000001 0.000000 0.000006 -0.000004 -0.000001 -0.000000 -0.000002 0.000008 -0.000001 -0.000001 -0.000005 -0.000002 -0.000004 0.000003 -0.000000 -0.000001 0.000003 0.000000 0.000000 0.000001 0.000001 0.000002 0.000004 -15.546716 0.864356 1.472972 -45.241959 16.276361 -28.349537 0.096390 -8.764322 0.001453 17.045448 -15.414110 5.088684 2.169721 -5.175276 -7.286350 5.059507 25.286651 9.240097 10.584164 -10.911174 -11.670513 -0.000003 0.000000 0.000000 -11.106208 -4.956301 -0.433753 -14.952170 1.514561 -0.198773 -13.864138 1.406653 -0.171039 -0.000001 -0.000002 0.000001 -16.981666 0.142523 -0.872228 -19.309110 1.940752 -0.330175 -19.720231 1.980414 -0.344255 -0.000002 -0.000001 -0.000003 -24.118474 4.505617 -1.416792 -21.706456 2.170541 -0.416199 -21.786797 2.178166 -0.419241 -0.000001 0.000002 -0.000002 -30.896597 5.627130 -3.249728 -26.560198 2.623538 -0.619326 -26.055782 2.577282 -0.596429 -0.000003 0.000002 -0.000000 0.000002 0.000002 0.000000 0.000002 0.000002 0.000002 -0.000001 -0.000000 -0.000004 -0.000001 -0.000000 -0.000004 -8.707345 13.752349 0.835793 -46.217293 56.414046 -60.379621 14.993325 70.926817 12.531728 -5.297520 26.392035 12.660976 -3.454285 24.081432 -13.958680 -14.373400 -39.000591 16.325925 -14.402210 0.058060 -7.040356 0.000000 0.000001 0.000000 12.118750 -4.444924 -0.534911 13.164722 -1.062908 -0.122663 13.160533 -1.062557 -0.122569 -0.000001 -0.000002 -0.000001 28.226903 -5.459874 -1.589503 29.209471 -2.276537 -0.593279 30.896671 -2.395305 -0.662037 -0.000000 -0.000001 0.000001 37.564747 -5.899703 -2.316867 35.957893 -2.738602 -0.888862 37.645838 -2.848432 -0.971136 -0.000001 0.000000 0.000002 46.283555 -6.198923 -3.052081 43.781817 -3.226066 -1.296560 43.773538 -3.225577 -1.296096 -0.000002 0.000002 -0.000002 0.000000 0.000000 0.000000 0.000001 0.000003 0.000000 0.000000 0.000001 0.000000 -0.802114 -0.106550 -85.209294 8.005428 4.016472 55.487116 9.791374 23.656179 10.892042 0.000001 -0.000013 -4.486102 0.000000 -0.000004 -0.000001 6.366011 -14.657015 -4.698375 -4.639337 -15.930273 56.766598 22.378915 -4.767242 -28.764985 -0.000007 0.000017 -47.897719 0.000001 0.000001 0.000001 0.000000 0.000000 0.000001 -0.000001 0.000000 0.000000 0.000000 0.000000 0.000003 0.000000 0.000000 0.000002 0.000003 -0.000001 0.000003 0.000000 0.000001 0.000000 
-2.540257 63.263695 3.431578 -1.752219 0.459868 20.337744 -6.348802 12.061665 7.500361 -2.887770 4.923734 3.092585 2.339583 18.119526 5.296499 3.588696 -0.043518 -0.227528 15.623017 -10.957741 -7.736572 0.000000 0.000000 -0.000002 0.000000 0.000000 -0.000002 -0.000003 0.000002 -0.000005 0.000006 -0.000003 -0.000003 -0.000002 -0.000001 0.000000 -0.000001 -0.000000 -0.000006 -0.000002 -0.000004 0.000001 -0.000000 -0.000001 0.000001 0.000000 0.000000 0.000001 0.000001 0.000001 0.000001 -16.747192 1.230829 1.445536 -43.083443 15.948962 -27.783642 0.098410 -8.713951 0.022820 16.716471 -11.629557 3.646730 1.238954 -4.543673 -8.072388 4.871021 24.293133 9.011731 10.752465 -10.168693 -11.442156 -0.000004 -0.000002 0.000002 -10.372178 -4.217630 -0.395773 -14.204354 1.440442 -0.179473 -12.284180 1.249037 -0.134423 0.000001 0.000002 0.000003 -16.089908 0.787262 -0.814529 -18.427367 1.855335 -0.300965 -17.950347 1.808954 -0.285742 -0.000002 -0.000000 -0.000001 -23.018627 5.167179 -1.329588 -20.539547 2.059152 -0.373123 -19.585885 1.967465 -0.339632 0.000001 0.000002 -0.000002 -29.663682 6.633406 -3.833942 -24.766235 2.458166 -0.539788 -23.992059 2.386031 -0.507060 0.000001 -0.000001 -0.000002 0.000001 0.000000 0.000000 0.000000 0.000001 0.000000 -0.000002 0.000001 0.000001 -0.000002 0.000001 0.000001 -4.046032 28.651918 2.392851 -41.087755 55.020038 -60.111741 11.943862 65.530215 9.574237 -6.521341 28.202679 11.428503 -3.533660 22.496865 -13.322159 -13.002733 -36.687910 15.046930 -14.370218 -0.589584 -6.737170 0.000000 -0.000001 0.000000 11.183653 -4.259498 -0.483090 11.898384 -0.962206 -0.100271 11.894541 -0.961926 -0.100212 -0.000001 -0.000001 -0.000001 25.736514 -5.205344 -1.408559 26.397773 -2.074248 -0.486528 27.922208 -2.184580 -0.543158 -0.000001 0.000000 0.000001 34.171263 -5.636014 -2.044447 32.495223 -2.505895 -0.730397 34.020161 -2.609559 -0.798440 0.000000 -0.000001 0.000000 42.046562 -5.949884 -2.689198 39.563662 -2.970204 -1.068478 39.556088 -2.969722 -1.068083 0.000001 0.000002 0.000001 0.000001 -0.000000 0.000001 0.000000 -0.000001 0.000000 -0.000000 0.000001 -0.000007 -1.974326 -0.782566 -87.170403 7.305093 3.282640 57.154698 8.545749 23.805848 9.483694 -0.000009 -0.000014 -4.486140 0.000000 0.000000 0.000000 6.300090 -14.855410 -6.339434 -3.909316 -15.190586 57.282801 25.037544 -6.579625 -26.146205 0.000007 -0.000008 -52.091906 0.000001 0.000001 0.000000 0.000000 -0.000001 -0.000001 0.000000 -0.000001 -0.000004 0.000000 0.000000 0.000002 0.000000 0.000000 -0.000002 0.000001 -0.000001 0.000003 -0.000001 -0.000001 0.000002 
